<svg width="278" height="278" viewBox="0 0 278 278" fill="none" xmlns="http://www.w3.org/2000/svg">
<g filter="url(#filter0_d_2288_5)">
<rect x="11" y="7" width="256" height="256" rx="40" fill="url(#paint0_linear_2288_5)"/>
<g filter="url(#filter1_d_2288_5)">
<path d="M52.8977 101.652C51.3369 98.7104 52.3874 96.4293 56.0492 94.8086C59.5308 93.2478 63.1625 91.0568 66.9443 88.2355C70.7261 85.4141 73.8175 82.5028 76.2186 79.5014C78.9199 76.1398 81.5011 74.459 83.9623 74.459H98.279C101.881 74.459 103.682 76.2598 103.682 79.8615V198.717C103.682 202.319 101.881 204.12 98.279 204.12H83.8722C80.2705 204.12 78.4697 202.319 78.4697 198.717V113.087C78.4697 110.686 78.5898 108.285 78.8299 105.884H78.4697C76.6088 108.225 74.5679 110.236 72.3468 111.917C70.1258 113.597 67.8747 114.918 65.5936 115.878C62.7723 117.079 60.6413 116.299 59.2006 113.537L52.8977 101.652Z" fill="#581078"/>
<path d="M126.282 140.1C126.282 115.788 130.064 98.5303 137.628 88.3255C145.191 78.1207 156.777 73.0183 172.384 73.0183C187.991 73.0183 199.577 78.1207 207.14 88.3255C214.704 98.5303 218.486 115.788 218.486 140.1C218.486 164.411 214.704 181.669 207.14 191.874C199.577 202.079 187.991 207.181 172.384 207.181C156.777 207.181 145.191 202.079 137.628 191.874C130.064 181.669 126.282 164.411 126.282 140.1ZM152.935 140.1C152.935 151.205 153.835 161.89 155.636 172.155C157.497 182.42 163.08 187.552 172.384 187.552C181.688 187.552 187.241 182.42 189.042 172.155C190.903 161.89 191.833 151.205 191.833 140.1C191.833 128.995 190.903 118.31 189.042 108.045C187.241 97.78 181.688 92.6475 172.384 92.6475C163.08 92.6475 157.497 97.78 155.636 108.045C153.835 118.31 152.935 128.995 152.935 140.1Z" fill="#581078"/>
</g>
</g>
<defs>
<filter id="filter0_d_2288_5" x="0" y="0" width="278" height="278" filterUnits="userSpaceOnUse" color-interpolation-filters="sRGB">
<feFlood flood-opacity="0" result="BackgroundImageFix"/>
<feColorMatrix in="SourceAlpha" type="matrix" values="0 0 0 0 0 0 0 0 0 0 0 0 0 0 0 0 0 0 127 0" result="hardAlpha"/>
<feOffset dy="4"/>
<feGaussianBlur stdDeviation="5.5"/>
<feComposite in2="hardAlpha" operator="out"/>
<feColorMatrix type="matrix" values="0 0 0 0 0.803922 0 0 0 0 0.439216 0 0 0 0 0.972549 0 0 0 0.37 0"/>
<feBlend mode="normal" in2="BackgroundImageFix" result="effect1_dropShadow_2288_5"/>
<feBlend mode="normal" in="SourceGraphic" in2="effect1_dropShadow_2288_5" result="shape"/>
</filter>
<filter id="filter1_d_2288_5" x="52.198" y="73.0183" width="168.288" height="137.163" filterUnits="userSpaceOnUse" color-interpolation-filters="sRGB">
<feFlood flood-opacity="0" result="BackgroundImageFix"/>
<feColorMatrix in="SourceAlpha" type="matrix" values="0 0 0 0 0 0 0 0 0 0 0 0 0 0 0 0 0 0 127 0" result="hardAlpha"/>
<feOffset dx="2" dy="3"/>
<feComposite in2="hardAlpha" operator="out"/>
<feColorMatrix type="matrix" values="0 0 0 0 1 0 0 0 0 0.992743 0 0 0 0 0.992743 0 0 0 0.25 0"/>
<feBlend mode="normal" in2="BackgroundImageFix" result="effect1_dropShadow_2288_5"/>
<feBlend mode="normal" in="SourceGraphic" in2="effect1_dropShadow_2288_5" result="shape"/>
</filter>
<linearGradient id="paint0_linear_2288_5" x1="139" y1="7" x2="139" y2="263" gradientUnits="userSpaceOnUse">
<stop stop-color="#EF7AF4"/>
<stop offset="1" stop-color="#C16CF8"/>
</linearGradient>
</defs>
</svg>
